<?xml version="1.0" standalone="no"?>
<!DOCTYPE svg PUBLIC "-//W3C//DTD SVG 20010904//EN"
 "http://www.w3.org/TR/2001/REC-SVG-20010904/DTD/svg10.dtd">
<svg version="1.0" xmlns="http://www.w3.org/2000/svg"
 width="1024.000000pt" height="1024.000000pt" viewBox="0 0 1024.000000 1024.000000"
 preserveAspectRatio="xMidYMid meet">
<metadata>
Created by potrace 1.16, written by Peter Selinger 2001-2019
</metadata>
<g transform="translate(0.000000,1024.000000) scale(0.100000,-0.100000)"
fill="#000000" stroke="none">
<path d="M5655 9880 c3 -5 8 -10 11 -10 2 0 4 5 4 10 0 6 -5 10 -11 10 -5 0
-7 -4 -4 -10z"/>
<path d="M6160 7289 c-153 -15 -835 -29 -1401 -29 -994 0 -1273 -31 -1643
-181 -319 -129 -588 -344 -784 -627 -136 -196 -221 -445 -272 -797 -10 -71
-22 -145 -26 -162 -11 -53 18 -41 38 15 24 67 124 231 212 351 272 364 643
594 1125 695 297 63 604 78 1491 75 585 -3 674 -1 736 13 263 60 504 282 595
547 20 57 24 97 12 103 -5 2 -42 1 -83 -3z"/>
<path d="M5275 6423 c-1498 -20 -1643 -23 -1738 -37 -406 -63 -720 -218 -993
-490 -228 -228 -367 -441 -571 -871 -26 -55 -49 -104 -51 -108 -16 -33 52 22
218 178 106 99 234 213 284 253 223 179 499 335 726 410 260 85 340 92 1215
102 790 9 795 9 896 60 58 30 184 154 239 235 47 70 140 245 140 265 0 6 -30
9 -77 8 -43 -2 -172 -4 -288 -5z"/>
<path d="M3415 5619 c-188 -25 -369 -88 -534 -186 -201 -120 -399 -278 -706
-563 -266 -247 -381 -330 -577 -417 -140 -62 -188 -109 -188 -186 0 -42 38
-81 95 -96 66 -18 272 -24 392 -12 157 16 251 42 378 105 208 104 372 249 739
656 121 135 279 305 351 379 120 122 283 259 355 296 17 9 30 20 30 25 0 12
-237 11 -335 -1z"/>
<path d="M3820 5511 c-5 -11 -10 -27 -10 -37 0 -33 -288 -1313 -305 -1356 -7
-17 6 -18 182 -18 189 0 189 0 243 253 55 252 55 252 332 255 277 2 277 2 288
60 7 31 20 94 30 139 9 46 15 85 12 88 -3 3 -124 5 -269 5 -255 0 -263 1 -263
20 0 31 61 304 71 314 4 5 143 8 308 7 300 -2 300 -2 306 21 28 124 55 252 55
259 0 5 -218 9 -485 9 -469 0 -485 -1 -495 -19z"/>
<path d="M5025 5518 c-9 -31 -166 -718 -255 -1118 -32 -146 -62 -273 -65 -282
-7 -17 21 -18 488 -18 463 0 496 1 501 18 14 45 55 266 51 273 -3 4 -142 5
-310 2 -295 -6 -305 -5 -305 13 0 10 23 107 50 214 28 107 84 346 125 530 41
184 77 345 81 358 6 22 6 22 -175 22 -137 0 -183 -3 -186 -12z"/>
<path d="M6590 5428 c-30 -57 -151 -274 -270 -483 -119 -209 -245 -434 -280
-500 -35 -66 -92 -169 -127 -229 -35 -60 -63 -110 -63 -112 0 -2 84 -4 188 -4
187 0 187 0 261 139 74 139 74 139 355 143 154 3 286 3 292 1 6 -2 16 -64 24
-143 13 -140 13 -140 212 -140 109 0 198 3 198 6 0 3 -18 103 -40 222 -33 184
-156 913 -191 1135 -11 67 -11 67 -258 67 -248 0 -248 0 -301 -102z m260 -335
c7 -49 25 -164 40 -257 16 -94 27 -173 25 -176 -6 -10 -266 -20 -325 -13 -27
3 -50 10 -50 15 0 16 281 518 290 518 4 0 13 -39 20 -87z"/>
<path d="M7522 5393 c-18 -76 -32 -141 -32 -145 0 -5 99 -8 220 -8 203 0 220
-1 220 -17 0 -28 -51 -264 -149 -696 -50 -220 -91 -405 -91 -413 0 -11 32 -14
178 -14 177 0 177 0 200 108 13 59 68 298 123 532 54 234 102 441 107 460 8
35 8 35 227 40 218 5 218 5 246 135 16 72 28 136 29 143 0 9 -131 12 -623 12
-623 0 -623 0 -655 -137z"/>
<path d="M5950 2639 c0 -5 5 -7 10 -4 6 3 10 8 10 11 0 2 -4 4 -10 4 -5 0 -10
-5 -10 -11z"/>
</g>
</svg>
